<svg width="136" height="25" viewBox="0 0 136 25" fill="none" xmlns="http://www.w3.org/2000/svg">
<path d="M18.104 8.768C18.104 10.0693 17.8053 11.264 17.208 12.352C16.6107 13.4187 15.6933 14.2827 14.456 14.944C13.2187 15.6053 11.6827 15.936 9.848 15.936H6.456V24H0.984V1.536H9.848C11.64 1.536 13.1547 1.84533 14.392 2.464C15.6293 3.08267 16.5573 3.936 17.176 5.024C17.7947 6.112 18.104 7.36 18.104 8.768ZM9.432 11.584C10.4773 11.584 11.256 11.3387 11.768 10.848C12.28 10.3573 12.536 9.664 12.536 8.768C12.536 7.872 12.28 7.17867 11.768 6.688C11.256 6.19733 10.4773 5.952 9.432 5.952H6.456V11.584H9.432ZM26.4248 9.12C27.0648 8.13867 27.8648 7.37067 28.8248 6.816C29.7848 6.24 30.8514 5.952 32.0248 5.952V11.744H30.5208C29.1554 11.744 28.1314 12.0427 27.4488 12.64C26.7661 13.216 26.4248 14.24 26.4248 15.712V24H20.9528V6.144H26.4248V9.12ZM42.7683 24.256C41.0189 24.256 39.4403 23.8827 38.0323 23.136C36.6456 22.3893 35.5469 21.3227 34.7363 19.936C33.9469 18.5493 33.5523 16.928 33.5523 15.072C33.5523 13.2373 33.9576 11.6267 34.7682 10.24C35.5789 8.832 36.6883 7.75467 38.0963 7.008C39.5043 6.26133 41.0829 5.888 42.8323 5.888C44.5816 5.888 46.1603 6.26133 47.5683 7.008C48.9763 7.75467 50.0856 8.832 50.8963 10.24C51.7069 11.6267 52.1123 13.2373 52.1123 15.072C52.1123 16.9067 51.6963 18.528 50.8643 19.936C50.0536 21.3227 48.9336 22.3893 47.5043 23.136C46.0963 23.8827 44.5176 24.256 42.7683 24.256ZM42.7683 19.52C43.8136 19.52 44.6989 19.136 45.4243 18.368C46.1709 17.6 46.5443 16.5013 46.5443 15.072C46.5443 13.6427 46.1816 12.544 45.4563 11.776C44.7523 11.008 43.8776 10.624 42.8323 10.624C41.7656 10.624 40.8803 11.008 40.1763 11.776C39.4723 12.5227 39.1203 13.6213 39.1203 15.072C39.1203 16.5013 39.4616 17.6 40.1443 18.368C40.8483 19.136 41.7229 19.52 42.7683 19.52ZM65.9273 24L60.4873 16.512V24H55.0153V0.32H60.4873V13.408L65.8953 6.144H72.6473L65.2233 15.104L72.7113 24H65.9273ZM91.6285 14.784C91.6285 15.296 91.5965 15.8293 91.5325 16.384H79.1485C79.2338 17.4933 79.5858 18.3467 80.2045 18.944C80.8445 19.52 81.6232 19.808 82.5405 19.808C83.9058 19.808 84.8552 19.232 85.3885 18.08H91.2125C90.9138 19.2533 90.3698 20.3093 89.5805 21.248C88.8125 22.1867 87.8418 22.9227 86.6685 23.456C85.4952 23.9893 84.1832 24.256 82.7325 24.256C80.9832 24.256 79.4258 23.8827 78.0605 23.136C76.6952 22.3893 75.6285 21.3227 74.8605 19.936C74.0925 18.5493 73.7085 16.928 73.7085 15.072C73.7085 13.216 74.0818 11.5947 74.8285 10.208C75.5965 8.82133 76.6632 7.75467 78.0285 7.008C79.3938 6.26133 80.9618 5.888 82.7325 5.888C84.4605 5.888 85.9965 6.25067 87.3405 6.976C88.6845 7.70133 89.7298 8.736 90.4765 10.08C91.2445 11.424 91.6285 12.992 91.6285 14.784ZM86.0285 13.344C86.0285 12.4053 85.7085 11.6587 85.0685 11.104C84.4285 10.5493 83.6285 10.272 82.6685 10.272C81.7512 10.272 80.9725 10.5387 80.3325 11.072C79.7138 11.6053 79.3298 12.3627 79.1805 13.344H86.0285ZM99.9873 9.12C100.627 8.13867 101.427 7.37067 102.387 6.816C103.347 6.24 104.414 5.952 105.587 5.952V11.744H104.083C102.718 11.744 101.694 12.0427 101.011 12.64C100.329 13.216 99.9873 14.24 99.9873 15.712V24H94.5153V6.144H99.9873V9.12ZM113.675 1.536V24H108.203V1.536H113.675ZM128.52 5.952C130.611 5.952 132.275 6.63467 133.512 8C134.771 9.344 135.4 11.2 135.4 13.568V24H129.96V14.304C129.96 13.1093 129.651 12.1813 129.032 11.52C128.414 10.8587 127.582 10.528 126.536 10.528C125.491 10.528 124.659 10.8587 124.04 11.52C123.422 12.1813 123.112 13.1093 123.112 14.304V24H117.64V6.144H123.112V8.512C123.667 7.72267 124.414 7.104 125.352 6.656C126.291 6.18667 127.347 5.952 128.52 5.952Z" fill="white"/>
</svg>
